<?xml version="1.0" encoding="UTF-8" standalone="no"?>
<svg width="36px" height="36px" viewBox="0 0 36 36" version="1.1" xmlns="http://www.w3.org/2000/svg" xmlns:xlink="http://www.w3.org/1999/xlink" xmlns:sketch="http://www.bohemiancoding.com/sketch/ns">
    <!-- Generator: Sketch 3.2.2 (9983) - http://www.bohemiancoding.com/sketch -->
    <title>social-linkedin</title>
    <desc>Created with Sketch.</desc>
    <defs></defs>
    <g id="Page-1" stroke="none" stroke-width="1" fill="none" fill-rule="evenodd" sketch:type="MSPage">
        <g id="social-linkedin" sketch:type="MSArtboardGroup">
            <path d="M36,18 C36,27.941 27.941,36 18,36 C8.059,36 0,27.941 0,18 C0,8.059 8.059,0 18,0 C27.941,0 36,8.059 36,18" id="Fill-1" fill="#0077B5" sketch:type="MSShapeGroup"></path>
            <path d="M10.113,25.2 L13.714,25.2 L13.714,14.365 L10.113,14.365 L10.113,25.2 Z M11.914,12.886 C13.169,12.886 13.951,12.053 13.951,11.014 C13.927,9.951 13.169,9.142 11.937,9.142 C10.705,9.142 9.9,9.951 9.9,11.014 C9.9,12.053 10.681,12.886 11.89,12.886 L11.914,12.886 L11.914,12.886 Z" id="Fill-2" fill="#FFFFFF" sketch:type="MSShapeGroup"></path>
            <path d="M15.707,25.2 L19.308,25.2 L19.308,19.149 C19.308,18.825 19.332,18.502 19.427,18.27 C19.687,17.623 20.28,16.953 21.275,16.953 C22.578,16.953 23.099,17.947 23.099,19.403 L23.099,25.2 L26.7,25.2 L26.7,18.987 C26.7,15.659 24.923,14.11 22.554,14.11 C20.611,14.11 19.758,15.197 19.284,15.936 L19.308,15.936 L19.308,14.365 L15.707,14.365 C15.754,15.381 15.707,25.2 15.707,25.2" id="Fill-3" fill="#FFFFFF" sketch:type="MSShapeGroup"></path>
        </g>
    </g>
</svg>