<?xml version="1.0" encoding="utf-8"?>
<!-- Generator: Adobe Illustrator 18.1.1, SVG Export Plug-In . SVG Version: 6.00 Build 0)  -->
<svg version="1.1" id="Layer_1" xmlns="http://www.w3.org/2000/svg" xmlns:xlink="http://www.w3.org/1999/xlink" x="0px" y="0px"
	 viewBox="-0.2 90 612 612" enable-background="new -0.2 90 612 612" xml:space="preserve">
<g>
	<g>
		<path fill="#1A1A1A" d="M305.8,90c-168.7,0-306,137.3-306,306s137.3,306,306,306s306-137.3,306-306S474.5,90,305.8,90z"/>
	</g>
</g>
<g>
	<path fill="#FFFFFF" d="M247,567.2c9.2-14.3,15.6-29.6,19.9-46.2c1.7-6.4,6.7-26,15.1-58.9c3.7,7.2,10.5,13.6,20.4,18.9
		c9.9,5.3,20.5,7.9,31.8,7.9c22.5,0,42.6-6.4,60.3-19.1c17.7-12.8,31.4-30.3,41-52.7c9.7-22.4,14.5-47.5,14.5-75.4
		c0-21.3-5.5-41.2-16.6-59.8c-11.1-18.6-27.1-33.8-48.2-45.5c-21-11.7-44.8-17.6-71.2-17.6c-19.5,0-37.8,2.7-54.7,8.1
		c-16.9,5.4-31.3,12.6-43.1,21.5c-11.8,8.9-22,19.2-30.4,30.9c-8.5,11.6-14.7,23.7-18.7,36.2c-4,12.5-6,25-6,37.4
		c0,19.3,3.7,36.4,11.2,51.1c7.5,14.7,18.3,25.1,32.7,31c5.6,2.2,9.1,0.4,10.6-5.6c0.4-1.3,1.1-4.2,2.2-8.6s1.9-7.2,2.2-8.4
		c1.1-4.3,0.1-8.3-3.1-12c-9.5-11.4-14.3-25.4-14.3-42.2c0-28.1,9.7-52.3,29.2-72.5c19.5-20.2,44.9-30.3,76.4-30.3
		c28.1,0,50,7.7,65.8,22.9c15.7,15.3,23.6,35.1,23.6,59.5c0,31.6-6.4,58.5-19.1,80.7c-12.7,22.2-29.1,33.2-49,33.2
		c-11.4,0-20.5-4-27.4-12.1c-6.9-8.1-9-17.8-6.4-29.2c1.5-6.5,3.9-15.2,7.4-26.1c3.4-10.9,6.2-20.5,8.4-28.7
		c2.1-8.3,3.2-15.3,3.2-21.1c0-9.3-2.5-17-7.6-23.2c-5-6.1-12.2-9.2-21.5-9.2c-11.5,0-21.3,5.3-29.3,15.9c-8,10.6-12,23.9-12,39.7
		c0,13.6,2.3,25,7,34.1c0,0-27.6,116.7-27.6,116.7c-3.9,16.5-5.5,33.8-3.4,50.7c1.3,10.3,6,35.9,6,35.9S240.9,576.8,247,567.2z"/>
</g>
</svg>
