<?xml version="1.0" encoding="UTF-8" standalone="no"?>
<svg width="36px" height="36px" viewBox="0 0 36 36" version="1.1" xmlns="http://www.w3.org/2000/svg" xmlns:xlink="http://www.w3.org/1999/xlink" xmlns:sketch="http://www.bohemiancoding.com/sketch/ns">
    <!-- Generator: Sketch 3.2.2 (9983) - http://www.bohemiancoding.com/sketch -->
    <title>social-twitter</title>
    <desc>Created with Sketch.</desc>
    <defs></defs>
    <g id="Page-1" stroke="none" stroke-width="1" fill="none" fill-rule="evenodd" sketch:type="MSPage">
        <g id="social-twitter" sketch:type="MSArtboardGroup">
            <g id="Fill-12-+-Fill-13" sketch:type="MSLayerGroup">
                <path d="M18,0 C8.0745,0 0,8.0745 0,18 C0,27.9255 8.0745,36 18,36 C27.9255,36 36,27.9255 36,18 C36,8.0745 27.9255,0 18,0" id="Fill-12" fill="#000000" sketch:type="MSShapeGroup"></path>
                <path d="M21.462,11 C19.422,11 17.769,12.6950369 17.769,14.7869155 C17.769,15.0837777 17.802,15.3729491 17.865,15.6498154 C14.796,15.4913864 12.075,13.9840033 10.2525,11.6937039 C9.9345,12.2520509 9.753,12.9026866 9.753,13.5963905 C9.753,14.9099672 10.4055,16.0697293 11.3955,16.7495898 C10.791,16.7295939 10.221,16.5588597 9.723,16.2758409 L9.723,16.3219852 C9.723,18.1569934 10.9965,19.6874487 12.6855,20.0366079 C12.375,20.1227441 12.0495,20.1688884 11.712,20.1688884 C11.475,20.1688884 11.2425,20.1442781 11.0175,20.10121 C11.487,21.6055168 12.8505,22.7006768 14.4675,22.7299016 C13.203,23.7466161 11.6115,24.3511075 9.8805,24.3511075 C9.5835,24.3511075 9.2895,24.3341879 9,24.2988105 C10.635,25.3739746 12.576,26 14.661,26 C21.453,26 25.1685,20.2288761 25.1685,15.2252871 C25.1685,15.0607055 25.164,14.897662 25.1565,14.7361567 C25.8795,14.20242 26.505,13.5348646 27,12.7750205 C26.337,13.0764971 25.626,13.2795324 24.879,13.3718212 C25.641,12.9026866 26.2275,12.1613002 26.502,11.2768663 C25.7895,11.7106235 24.999,12.0259434 24.1575,12.1951395 C23.484,11.4599057 22.524,11 21.462,11" id="Fill-13" fill="#FFFFFF" sketch:type="MSShapeGroup"></path>
            </g>
        </g>
    </g>
</svg>