<?xml version="1.0" encoding="UTF-8" standalone="no"?>
<svg width="36px" height="36px" viewBox="0 0 36 36" version="1.1" xmlns="http://www.w3.org/2000/svg" xmlns:xlink="http://www.w3.org/1999/xlink" xmlns:sketch="http://www.bohemiancoding.com/sketch/ns">
    <!-- Generator: Sketch 3.2.2 (9983) - http://www.bohemiancoding.com/sketch -->
    <title>social-behance</title>
    <desc>Created with Sketch.</desc>
    <defs></defs>
    <g id="Page-1" stroke="none" stroke-width="1" fill="none" fill-rule="evenodd" sketch:type="MSPage">
        <g id="social-behance" sketch:type="MSArtboardGroup">
            <g id="Imported-Layers" sketch:type="MSLayerGroup" fill="#1769FF">
                <path d="M36,18 C36,27.941 27.941,36 18,36 C8.059,36 0,27.941 0,18 C0,8.059 8.059,0 18,0 C27.941,0 36,8.059 36,18" id="Fill-1" sketch:type="MSShapeGroup"></path>
            </g>
            <g id="Imported-Layers-2" sketch:type="MSLayerGroup" transform="translate(6.000000, 10.615385)" fill="#FFFFFF">
                <path d="M7.34307692,0.0526153846 C8.00030769,0.0526153846 8.59384615,0.108923077 9.13476923,0.227076923 C9.67292308,0.340615385 10.1335385,0.531692308 10.5203077,0.792923077 C10.9043077,1.05507692 11.2024615,1.40307692 11.4175385,1.83969231 C11.6261538,2.27169231 11.7304615,2.81261538 11.7304615,3.45046154 C11.7304615,4.14092308 11.5744615,4.71876923 11.2606154,5.18030769 C10.9449231,5.64092308 10.4806154,6.01846154 9.86030769,6.312 C10.7049231,6.55569231 11.3298462,6.98215385 11.7461538,7.59046154 C12.1624615,8.20246154 12.3664615,8.93538462 12.3664615,9.79384615 C12.3664615,10.4889231 12.2326154,11.0898462 11.9658462,11.5929231 C11.6981538,12.1033846 11.3316923,12.5178462 10.8812308,12.8363077 C10.4261538,13.1575385 9.90369231,13.3947692 9.31938462,13.548 C8.74061538,13.7012308 8.14061538,13.7796923 7.52492308,13.7796923 L0.871384615,13.7796923 L0.871384615,0.0526153846 L7.34307692,0.0526153846 L7.34307692,0.0526153846 Z M6.95261538,5.59753846 C7.48707692,5.59753846 7.932,5.472 8.28276923,5.21353846 C8.63076923,4.95969231 8.79969231,4.53969231 8.79969231,3.96553846 C8.79969231,3.64523077 8.74246154,3.38215385 8.63076923,3.17630769 C8.51353846,2.97230769 8.36030769,2.81261538 8.16646154,2.69907692 C7.97261538,2.58184615 7.75292308,2.50246154 7.5,2.45907692 C7.24984615,2.40923077 6.98953846,2.39076923 6.72184615,2.39076923 L3.89538462,2.39076923 L3.89538462,5.59753846 L6.95261538,5.59753846 L6.95261538,5.59753846 Z M7.12153846,11.4415385 C7.41692308,11.4415385 7.70123077,11.4138462 7.96707692,11.3547692 C8.23846154,11.2966154 8.47753846,11.2015385 8.67969231,11.064 C8.88092308,10.9310769 9.05076923,10.7483077 9.17169231,10.5166154 C9.29353846,10.2867692 9.35169231,9.98676923 9.35169231,9.62676923 C9.35169231,8.91876923 9.15230769,8.41661538 8.75630769,8.112 C8.36030769,7.81107692 7.83138462,7.66153846 7.18061538,7.66153846 L3.89538462,7.66153846 L3.89538462,11.4415385 L7.12153846,11.4415385 L7.12153846,11.4415385 Z" id="Fill-1" sketch:type="MSShapeGroup"></path>
                <path d="M17.2006154,11.3963077 C17.6104615,11.7941538 18.2012308,11.9963077 18.9673846,11.9963077 C19.5166154,11.9963077 19.992,11.8569231 20.3916923,11.5790769 C20.7876923,11.3021538 21.0276923,11.0049231 21.1218462,10.6984615 L23.5264615,10.6984615 C23.1378462,11.8938462 22.5535385,12.7486154 21.7523077,13.2618462 C20.964,13.7796923 19.9984615,14.0353846 18.8750769,14.0353846 C18.0932308,14.0353846 17.388,13.9089231 16.7547692,13.6596923 C16.1243077,13.4058462 15.5944615,13.0532308 15.1504615,12.5916923 C14.7175385,12.1273846 14.3815385,11.5790769 14.1406154,10.9347692 C13.9043077,10.2941538 13.7843077,9.58523077 13.7843077,8.81723077 C13.7843077,8.07323077 13.908,7.37907692 14.1516923,6.73753846 C14.4,6.09415385 14.7433846,5.53753846 15.1910769,5.07138462 C15.6452308,4.60338462 16.1778462,4.23323077 16.8027692,3.96369231 C17.4267692,3.69415385 18.1135385,3.55846154 18.8750769,3.55846154 C19.7150769,3.55846154 20.4526154,3.72092308 21.084,4.05138462 C21.7126154,4.37538462 22.2286154,4.81661538 22.6347692,5.36676923 C23.0390769,5.91876923 23.3270769,6.54830769 23.5070769,7.25446154 C23.6870769,7.95876923 23.7498462,8.69538462 23.6972308,9.46707692 L16.5258462,9.46707692 C16.5258462,10.2526154 16.7898462,10.9956923 17.2006154,11.3963077 M20.3372308,6.17353846 C20.0132308,5.81446154 19.464,5.62061538 18.7929231,5.62061538 C18.3572308,5.62061538 17.9963077,5.69353846 17.7083077,5.84307692 C17.4249231,5.99076923 17.1941538,6.17446154 17.016,6.39138462 C16.8396923,6.61107692 16.7196923,6.84276923 16.6486154,7.09107692 C16.5803077,7.33292308 16.5369231,7.55261538 16.5258462,7.74646154 L20.9676923,7.74646154 C20.9012308,7.04953846 20.664,6.53538462 20.3372308,6.17353846" id="Fill-2" sketch:type="MSShapeGroup"></path>
                <path d="M15.9673846,0.830769231 L21.5298462,0.830769231 L21.5298462,2.18492308 L15.9673846,2.18492308 L15.9673846,0.830769231 Z" id="Fill-3" sketch:type="MSShapeGroup"></path>
            </g>
        </g>
    </g>
</svg>