<?xml version="1.0" encoding="UTF-8" standalone="no"?>
<svg width="36px" height="36px" viewBox="0 0 36 36" version="1.1" xmlns="http://www.w3.org/2000/svg" xmlns:xlink="http://www.w3.org/1999/xlink" xmlns:sketch="http://www.bohemiancoding.com/sketch/ns">
    <!-- Generator: Sketch 3.2.2 (9983) - http://www.bohemiancoding.com/sketch -->
    <title>social-facebook</title>
    <desc>Created with Sketch.</desc>
    <defs></defs>
    <g id="Page-1" stroke="none" stroke-width="1" fill="none" fill-rule="evenodd" sketch:type="MSPage">
        <g id="social-facebook" sketch:type="MSArtboardGroup">
            <g id="Fill-1-+-Fill-2" sketch:type="MSLayerGroup">
                <path d="M18,36 C8.0745,36 0,27.9255 0,18 C0,8.0745 8.0745,0 18,0 C27.9255,0 36,8.0745 36,18 C36,27.9255 27.9255,36 18,36" id="Fill-1" fill="#4061A6" sketch:type="MSShapeGroup"></path>
                <path d="M19,12.258 L19,12 L19,12.124 L19,12.258 M21.042,6 C16.8735,6 15.063,8.547 15.063,11.3205 L15.063,14.85 L12,14.85 L12,18.9825 L15.063,18.9825 L15.063,30 L19.473,30 L19.473,18.9825 L23.8035,18.9825 L24,14.85 L19.473,14.85 L19.473,11.8335 C19.473,10.6935 19.7145,10.0065 21.2175,10.0065 C22.6065,10.0065 23.88,10.0185 23.88,10.0185 L23.979,6.1605 C23.979,6.1605 22.7295,6 21.042,6" id="Fill-2" fill="#FFFFFF" sketch:type="MSShapeGroup"></path>
            </g>
        </g>
    </g>
</svg>